<?xml version="1.0" encoding="UTF-8" standalone="no"?>
<!-- Generator: Adobe Illustrator 21.1.0, SVG Export Plug-In . SVG Version: 6.00 Build 0)  -->

<svg
   xmlns:dc="http://purl.org/dc/elements/1.1/"
   xmlns:cc="http://creativecommons.org/ns#"
   xmlns:rdf="http://www.w3.org/1999/02/22-rdf-syntax-ns#"
   xmlns:svg="http://www.w3.org/2000/svg"
   xmlns="http://www.w3.org/2000/svg"
   xmlns:xlink="http://www.w3.org/1999/xlink"
   xmlns:sodipodi="http://sodipodi.sourceforge.net/DTD/sodipodi-0.dtd"
   xmlns:inkscape="http://www.inkscape.org/namespaces/inkscape"
   version="1.1"
   id="Layer_1"
   x="0px"
   y="0px"
   viewBox="0 0 1400 980"
   style="enable-background:new 0 0 1400 980;"
   xml:space="preserve"
   sodipodi:docname="room.svg"
   inkscape:version="0.92.1 r15371"><metadata
     id="metadata5162"><rdf:RDF><cc:Work
         rdf:about=""><dc:format>image/svg+xml</dc:format><dc:type
           rdf:resource="http://purl.org/dc/dcmitype/StillImage" /></cc:Work></rdf:RDF></metadata><defs
     id="defs5160" /><sodipodi:namedview
     pagecolor="#ffffff"
     bordercolor="#666666"
     borderopacity="1"
     objecttolerance="10"
     gridtolerance="10"
     guidetolerance="10"
     inkscape:pageopacity="0"
     inkscape:pageshadow="2"
     inkscape:window-width="2560"
     inkscape:window-height="1377"
     id="namedview5158"
     showgrid="false"
     inkscape:zoom="0.91428571"
     inkscape:cx="313.04332"
     inkscape:cy="319.32662"
     inkscape:window-x="2552"
     inkscape:window-y="-8"
     inkscape:window-maximized="1"
     inkscape:current-layer="Layer_1" /><style
     type="text/css"
     id="style4893">
	.st0{fill-rule:evenodd;clip-rule:evenodd;fill:#FDE59F;}
	.st1{fill-rule:evenodd;clip-rule:evenodd;fill:#FFE9B1;}
	.st2{fill-rule:evenodd;clip-rule:evenodd;fill:#EC8900;}
	.st3{fill-rule:evenodd;clip-rule:evenodd;fill:#FFFFFF;}
	.st4{clip-path:url(#SVGID_2_);}
	.st5{fill-rule:evenodd;clip-rule:evenodd;fill:#EEEEEF;}
	.st6{fill-rule:evenodd;clip-rule:evenodd;fill:#FCD661;}
	.st7{fill-rule:evenodd;clip-rule:evenodd;fill:#9E9E9F;}
	.st8{fill-rule:evenodd;clip-rule:evenodd;fill:#51BEEE;}
	.st9{fill-rule:evenodd;clip-rule:evenodd;fill:#005E55;}
	.st10{fill-rule:evenodd;clip-rule:evenodd;fill:#F2F2F3;}
	.st11{fill-rule:evenodd;clip-rule:evenodd;fill:#E2E2E2;}
	.st12{fill-rule:evenodd;clip-rule:evenodd;fill:#FCE100;}
	.st13{fill-rule:evenodd;clip-rule:evenodd;fill:#FBFAFA;}
	.st14{fill-rule:evenodd;clip-rule:evenodd;fill:#E8523D;}
	.st15{fill-rule:evenodd;clip-rule:evenodd;fill:#D3241A;}
	.st16{fill-rule:evenodd;clip-rule:evenodd;fill:#5C5350;}
	.st17{fill-rule:evenodd;clip-rule:evenodd;fill:#FDD200;}
	.st18{fill-rule:evenodd;clip-rule:evenodd;fill:#9477B3;}
	.st19{fill-rule:evenodd;clip-rule:evenodd;fill:#D59E22;}
	.st20{fill-rule:evenodd;clip-rule:evenodd;fill:#B9D200;}
	.st21{fill-rule:evenodd;clip-rule:evenodd;fill:#B8C9CB;}
	.st22{fill-rule:evenodd;clip-rule:evenodd;fill:#3A7174;}
	.st23{fill-rule:evenodd;clip-rule:evenodd;fill:#F4B1B1;}
	.st24{fill-rule:evenodd;clip-rule:evenodd;fill:#CED0D0;}
	.st25{fill-rule:evenodd;clip-rule:evenodd;fill:#E7F4FA;}
	.st26{fill-rule:evenodd;clip-rule:evenodd;fill:#A499C9;}
	.st27{fill-rule:evenodd;clip-rule:evenodd;fill:#E65B71;}
	.st28{fill-rule:evenodd;clip-rule:evenodd;fill:#F6EDE9;}
	.st29{fill-rule:evenodd;clip-rule:evenodd;fill:#8AC23C;}
	.st30{fill-rule:evenodd;clip-rule:evenodd;fill:#93253A;}
	.st31{fill-rule:evenodd;clip-rule:evenodd;fill:#AB5D5A;}
	.st32{fill-rule:evenodd;clip-rule:evenodd;fill:#B4B5B5;}
	.st33{fill-rule:evenodd;clip-rule:evenodd;fill:#78CAEB;}
	.st34{fill-rule:evenodd;clip-rule:evenodd;fill:#EBECF2;}
	.st35{fill-rule:evenodd;clip-rule:evenodd;fill:#119FD2;}
	.st36{fill-rule:evenodd;clip-rule:evenodd;fill:#E8470B;}
	.st37{fill-rule:evenodd;clip-rule:evenodd;fill:#FCD147;}
	.st38{fill-rule:evenodd;clip-rule:evenodd;fill:#CD5448;}
	.st39{fill-rule:evenodd;clip-rule:evenodd;fill:#4D5860;}
	.st40{fill-rule:evenodd;clip-rule:evenodd;fill:#3D210D;}
	.st41{fill-rule:evenodd;clip-rule:evenodd;fill:#C4181F;}
	.st42{fill-rule:evenodd;clip-rule:evenodd;fill:#CECCCA;}
	.st43{fill-rule:evenodd;clip-rule:evenodd;fill:#0C3455;}
	.st44{fill-rule:evenodd;clip-rule:evenodd;fill:#CFE9EB;}
</style><rect
     class="st0"
     width="1400"
     height="980"
     id="rect4895" /><rect
     x="-4.1"
     y="686.6"
     class="st1"
     width="1400"
     height="44.6"
     id="rect4897" /><g
     class="test"
     bookmark="https://google.com"
     id="g4915"><path
       class="st2"
       d="M218.2,32.9h196.5c14.4,0,26,11.7,26,26v224.2c0,14.4-11.7,26-26,26H218.2c-14.4,0-26-11.6-26-26V58.9   C192.2,44.5,203.8,32.9,218.2,32.9L218.2,32.9z M388.7,84.9H244.2v172.2h144.5V84.9z"
       id="path4899" /><rect
       x="218.2"
       y="58.9"
       class="st3"
       width="196.5"
       height="224.2"
       id="rect4901" /><g
       id="g4913"><defs
         id="defs4904"><rect
           id="SVGID_1_"
           x="218.2"
           y="58.9"
           width="196.5"
           height="224.2" /></defs><clipPath
         id="SVGID_2_"><use
           xlink:href="#SVGID_1_"
           style="overflow:visible;"
           id="use4906" /></clipPath><g
         class="st4"
         clip-path="url(#SVGID_2_)"
         id="g4911"><rect
           x="173.9"
           y="117"
           transform="matrix(0.7877 -0.616 0.616 0.7877 -41.22 252.7865)"
           class="st5"
           width="344.6"
           height="138.4"
           id="rect4909" /></g></g></g><rect
     y="731.6"
     class="st6"
     width="1400"
     height="248.4"
     id="rect4917" /><rect
     x="905.1"
     y="338"
     class="st7"
     width="452.8"
     height="10.5"
     id="rect4923" /><g
     id="g4933"><path
       class="st9"
       d="M603.8,701.6c0.6,2.7,1.6,3.7,1.7,6.7c0.1,2.4,0.1,5.6-0.2,8l-35.9,0.1c-0.7-4.4-0.5-9.6,0.9-13.3   c0.7-1.9,3.6-7.8,3.3-10.2c-15.1-2.2-18.6,34.8-9.8,49.5c0.6,1,1.2,2,2,2.8c1,1,1.6,1.3,2.4,2.4c3.2-1.3-1.2-0.8,2.6-1.8   c5.7,0,31.5-0.9,34.8,0.5l-0.1,3.2l-0.1,17.3l-35.9,0.2l-0.2-12.5c-1.8-0.8-2.9-1.4-3.9-2.4c-1.3-1.2-1.6-2.2-2.9-3.3   c-0.8-2.1-2.1-4.3-3-6.5c-0.9-2.4-1.5-4.7-2.1-7.4c-1.2-5.3-1.4-10.8-1.3-16.6c0.2-6.8,1.4-10.7,2.5-16.8c3.4-7.1,6.2-18.1,17.6-14   l2.9-8.3l16.7,0.1L603.8,701.6z"
       id="path4925" /><polygon
       class="st10"
       points="569.4,716.4 605.3,716.3 605.4,716.5 605.7,745.8 569.3,745.6  "
       id="polygon4927" /><path
       class="st11"
       d="M595.7,679.1l-16.7-0.1l-0.2-11.2c2.9-1.2,14.5-1.3,17.1-0.2C596.6,669.9,596.6,676.7,595.7,679.1z"
       id="path4929" /><path
       class="st12"
       d="M578.5,723.1c5,2.7,3.2,18.5-2.1,15.9C572.2,736.8,573,720.1,578.5,723.1z"
       id="path4931" /></g><g
     id="g4943"><path
       class="st13"
       d="M393.2,763.4c0.6,11.9-3,17.1,2.9,26.3c7.5,4.7,103.1,3.2,118.7,1.8c6.1-16.1,3.8-32.8,3.8-55.1   c0.1-62,9.6-64.3-30.9-87.5c-22-12.6-19.1-10.6-48.6-11.2l-0.3-11.8l-20.5-0.1l0.1,11.9c-10.7,0.5-17-1.5-22.9,4.1   C390.2,650.6,392.6,745.1,393.2,763.4L393.2,763.4z M500.1,744.4c-5.9,0.2-12.6-2.8-16-5.8c-9.8-8.7-5-58-3.3-62.8   c13.9,0.6,20.1,8.4,20.2,23.6C501,713.1,501.8,731.3,500.1,744.4z"
       id="path4935" /><path
       class="st14"
       d="M411.8,767.6c10.3,2.5,40.1,4.4,49.8-0.1c7.8-6,4.4-69.3,4.4-88.5c0-21.7-5.2-18.2-39.2-18.2   c-22.5,0-17.7,4.8-17.7,45C409,724.6,406.2,753,411.8,767.6z"
       id="path4937" /><path
       class="st15"
       d="M419.3,705c5.8,4.5,28.3,3.3,36.2,1.3c2.6-1.9,2.7-13.8,2.7-17c0-8.4,0.9-13.1-2.3-19.1   c-4.5-1-31.9-2.1-35.9,0.3C414,674.1,415.9,700.5,419.3,705z"
       id="path4939" /><path
       class="st16"
       d="M418.3,625.8l20.5,0.1l5.8-1.6c-0.2-7.6-2-17.1-5.6-23l-22.2-0.2l-4.9,22.4L418.3,625.8z"
       id="path4941" /></g><rect
     x="907.9"
     y="346.8"
     class="st7"
     width="11.9"
     height="512.9"
     id="rect4945" /><g
     id="g4957"><path
       class="st17"
       d="M704.7,456.7c5.6,11,5.1,15.7-1.4,24.2c-6,3.6-108.1,1.5-130.7,1.6c-7.2,0-10.3,1.2-16.2-2.4l0.3-11.3   c0-0.5,0-1,0-1.5c-0.2-7.4-2.3-5.6,0.8-11.3c8.4-4.4,60-2.2,74.7-2.2C647.5,453.9,694.4,450.5,704.7,456.7z"
       id="path4947" /><path
       class="st14"
       d="M703.4,481l0,3c8.1,4.4,6.7,17.5,0.4,26.1c-15.4,2.5-135.7,3.3-146.4-0.7c-2.1-4.3-0.3-21.4-0.9-29.3   c6,3.6,9,2.5,16.2,2.4C595.3,482.4,697.4,484.6,703.4,481z"
       id="path4949" /><path
       class="st14"
       d="M554.8,428.9c-3.2,4.7-8.1,12.7-2.6,22.8c3.5,6.3,12,4.5,18.5,4.4c21.2-0.1,124,2,130.2-1.8   c2.4-4.6,2.1-17.9,1-25c-9.7-6-41.2-0.9-54.5-2.5l-10.8,1.3C619.5,427.9,563.8,426.8,554.8,428.9z"
       id="path4951" /><path
       class="st18"
       d="M702.4,540.1l-144.2,0c-3.8-8.4-1.6-22.4-0.9-30.7c10.7,4,131,3.2,146.4,0.7l8.4,0.5l-7.6,1.7   c2,4,4.7,6.9,3.9,15.7C707.9,536.5,705.5,535.9,702.4,540.1z"
       id="path4953" /><path
       class="st13"
       d="M558.4,568.9c-4.3-10.6-1.9-2.9-1.7-13.7c0.1-8.6-3.1-7.5,1.6-15.2l144.2,0l1,0.4c4,3.8,7.9,13,3.4,22.6   c-3.2,6.9-10.7,5.6-17.5,5.6C650.4,568.5,593.9,566.7,558.4,568.9z"
       id="path4955" /></g><g
     id="g4961"><path
       class="st13"
       d="M572.7,426.7c-4.3-10.6-1.9-2.9-1.7-13.7c0.1-8.6-3.1-7.5,1.6-15.2l144.2,0l1,0.4c4,3.8,7.9,13,3.4,22.6   c-3.2,6.9-10.7,5.6-17.5,5.6C664.6,426.3,608.1,424.5,572.7,426.7z"
       id="path4959" /></g><rect
     x="1345.9"
     y="341.3"
     class="st7"
     width="11.9"
     height="512.9"
     id="rect4963" /><path
     class="st19"
     d="M1237,338.4c12.5,1.4,5.7-2.6,13.6-6.6c12-6.1,23.2,9.2,14.6,18.8c-4.9,5.5-8.6,3.5-16.7,4.2l-0.5,19.4  l-97.7,64.1c-3.6,2.2-4.8,2.1-4.1,7c2.7,0.8,206.4,1.3,212.2,0c1.5-5.1-1.8-5.1-9.9-10.6l-39.4-25.7c-8.9-5.8-15.8-10.5-26.1-17.2  c-8.2-5.3-19.4-11.9-26.6-17.6l-0.1-11.7c5.9-1.4,12.6-1.8,17.2-10.5c4-7.5,2.2-16.5-2.2-22C1263.1,319.5,1240.4,321,1237,338.4  L1237,338.4z M1165.4,438.2c2.4-3.1,37.7-25.3,43.4-29c9.9-6.5,35-23.6,43.4-28.2c7.7,3.9,15.7,10,22.2,14.3  c8.2,5.5,62.3,39.5,64.6,43L1165.4,438.2z"
     id="path4965" /><path
     class="st19"
     d="M1104.1,338.4c12.5,1.4,5.7-2.6,13.6-6.6c12-6.1,23.2,9.2,14.6,18.8c-4.9,5.5-8.6,3.5-16.7,4.2l-0.5,19.4  l-97.7,64.1c-3.6,2.2-4.8,2.1-4.1,7c2.7,0.8,206.4,1.3,212.2,0c1.5-5.1-1.8-5.1-9.9-10.6l-39.4-25.7c-8.9-5.8-15.8-10.5-26.1-17.2  c-8.2-5.3-19.4-11.9-26.6-17.6l-0.1-11.7c5.9-1.4,12.6-1.8,17.2-10.5c4-7.5,2.2-16.5-2.2-22C1130.2,319.5,1107.5,321,1104.1,338.4  L1104.1,338.4z M1032.4,438.2c2.4-3.1,37.7-25.3,43.4-29c9.9-6.5,35-23.6,43.4-28.2c7.7,3.9,15.7,10,22.2,14.3  c8.2,5.5,62.3,39.5,64.6,43L1032.4,438.2z"
     id="path4967" /><g
     id="g4981"><path
       class="st20"
       d="M546.2,601.1l16.9,0.2l158.9,0.1l16,0.4c11.5-3.7,60.8-1.2,78-1.2c12.7,0,27.4-0.2,25.4-15   c-1.6-12.1-12.5-8.2-35.3-8.1l-324.3-0.1c-9.7,0-31.8-3.4-36.6,4.2c-5.9,9.5,0.6,19,21.7,19C490.5,600.7,524.1,598.5,546.2,601.1z"
       id="path4969" /><path
       class="st21"
       d="M638.8,707.9c-0.1,0-4.4-3.6-5.1-4.2c-1.8-1.4-2,1.7-3.2-2.5c-0.3-1-1.2-0.9-1.7-1.3l-89.4,96.2   c-5.1,13.2-0.3,6.5,1.5,8.7c6.3,4.4,35.2-31.1,49-44.8L638.8,707.9z"
       id="path4971" /><path
       class="st21"
       d="M647.9,707.9c7.1,12.4,66,70.3,81.9,89c5.7,6.7,5.7,9.1,17.6,7.8c-0.7-14-54.9-65.2-67.3-78.5l-24.6-25   c-2,1.3-0.2-0.4-3.9,2.7C650.3,705.1,648.3,707.5,647.9,707.9z"
       id="path4973" /><path
       class="st21"
       d="M629.7,688.9c2.1-1.9,5.1-4.9,7.5-7.1c-11.6-15.4-23.6-24.7-37.4-39.8c-6.8-7.4-11.9-13.4-18.7-20.6   c-5.9-6.4-12.9-11.9-18-20.1l-16.9-0.2c6.4,9.5,11.9,14.1,20.5,22.3c7.8,7.5,12.7,13.2,20.2,21.7   C598.1,657.8,617.3,678.6,629.7,688.9z"
       id="path4975" /><path
       class="st21"
       d="M649.1,681.9c1.4,1.9,3.3,4,5.6,7.9l83.3-88.1l-16-0.4c-10.4,14.7-26.9,29.8-36.7,40.4   C672.6,655.6,657.9,667.7,649.1,681.9z"
       id="path4977" /><path
       class="st22"
       d="M629.7,688.9l-1,10.9c0.6,0.4,1.5,0.4,1.7,1.3c1.3,4.3,1.4,1.1,3.2,2.5c0.8,0.6,5,4.1,5.1,4.2l9.1,0   c0.3-0.4,2.4-2.8,3.7-4c3.7-3.1,1.8-1.4,3.9-2.7l-0.8-11.4c-2.3-3.9-4.2-6-5.6-7.9l-11.9-0.1C634.8,684,631.8,687,629.7,688.9z"
       id="path4979" /></g><path
     class="st23"
     d="M1167.5,338.4c12.5,1.4,5.7-2.6,13.6-6.6c12-6.1,23.2,9.2,14.6,18.8c-4.9,5.5-8.6,3.5-16.7,4.2l-0.5,19.4  l-97.7,64.1c-3.6,2.2-4.8,2.1-4.1,7c2.7,0.8,206.4,1.3,212.2,0c1.5-5.1-1.8-5.1-9.9-10.6l-39.4-25.7c-8.9-5.8-15.8-10.5-26.1-17.2  c-8.2-5.3-19.4-11.9-26.6-17.6l-0.1-11.7c5.9-1.4,12.6-1.8,17.2-10.5c4-7.5,2.2-16.5-2.2-22C1193.6,319.5,1170.9,321,1167.5,338.4  L1167.5,338.4z M1095.8,438.2c2.4-3.1,37.7-25.3,43.4-29c9.9-6.5,35-23.6,43.4-28.2c7.7,3.9,15.7,10,22.2,14.3  c8.2,5.5,62.3,39.5,64.6,43L1095.8,438.2z"
     id="path4983" /><g
     id="g4991"><path
       class="st2"
       d="M939.2,803c-0.6,5-0.8,6.8,0.1,11.5c7.8,1.4,96.1,0.5,111.9,0.5c10.7,0,27.8,1,37.8-0.2v-10.5   c-1.7-5.8-7.8-4.1-13.8-4.1c-14.9,0-41.2,0.7-53.7-0.2c-1.1-41.2-0.1-82.2-0.1-124.5c0-42-0.2-84,0-126l3.1-1.5   c0.2-7.5,0.6-15.6,0.7-24c0.1-8.5-0.1-14.5-9.6-15c-10.2-0.6-12.7,2.9-12.7,12.7c0.1,41.7,2.7,18.9,3.9,28.6l-0.2,249.7l-52.8,0.3   C949.8,800.4,941.3,799.3,939.2,803z"
       id="path4985" /><path
       class="st7"
       d="M1021.4,552l0-2.4l3.1-1.5c0.2-7.5,0.6-15.6,0.7-24c0.1-8.5-0.1-14.5-9.6-15c-10.2-0.6-12.7,2.9-12.7,12.7   c0.1,41.7,2.7,18.9,3.9,28.6l0,1.6H1021.4z"
       id="path4987" /><path
       class="st24"
       d="M1088.9,804.3v10.5c-10,1.3-27.1,0.2-37.8,0.2c-15.8,0-104,0.9-111.9-0.5c-0.9-4.7-0.7-6.5-0.1-11.5l-0.6,1.2   c0,0-0.4,1.2-0.4,1.3c-0.1,0.3-9.5,49.6-9.5,49.6c2.7-1.9,5.1-5.2,7.3-7.6c2.3,0.7,7,7.2,8.4,9c4.3-1.8,5.9-6.8,9.4-9.1   c3.2,2.5,5.4,6.7,8.5,9l8.5-9.3c4.1,3.5,5.6,7.8,9.5,9.3c2.1-2.8,5.2-6.3,7.6-9c2.6,1,5.9,6.3,8.5,8.9c4.2-1.5,4.8-6.5,9.3-8.7   c3.4,3,5.8,7.2,8.5,8.9c3-2.5,6-6.9,8.5-9.1l8.4,9.1c2.2-1.3,6.9-6.8,8.1-9c5.1,2.1,5.4,6.9,9.8,8.8c5-4.9,4.7-6.9,9-8.7   c1.6,2.4,6.1,7.7,8,8.8c3-2.3,5.5-6.5,8.5-9l8.4,9.1c3.3-1.8,6.1-6.5,8.6-9.1c3.3,1.7,4.3,5.6,8,7.8c-0.5-7.6-7.3-27.3-9.3-36.9   C1089.2,814.5,1091,807.2,1088.9,804.3z"
       id="path4989" /></g><g
     id="g4997"><path
       class="st25"
       d="M332.7,804.3l21.8,0.1c0.1-4.7,0.1-1.7,1.1-3l55.5-0.1l-0.2,7.6l0.2-4.5c36.6,0.9,73.9,0.2,110.6-0.1   c-1.1-8.2-5.9-15.7-11.1-20c-1.8-1.5-3.3-2-4.8-3.2c-4-3.1-1.2-0.6-3.1-5c-7.1-16.6-21-26.9-39.7-22.5c-4.3,1-7.6,3.6-11.5,4.7   c-4.5-4.3-4.9-6.4-11.3-10.1c-17.7-10.3-34.2-2.5-45.5,12.9c-11,0.1-15-2.9-24.3,3.8c-6.4,4.6-9.7,11-10.5,19.9   c-7.8,2.3-10.3,0.1-17.5,5.5C338,793.5,334.2,798,332.7,804.3z"
       id="path4993" /><path
       class="st9"
       d="M423.9,882.1c14.5-0.1,29-0.1,43.5,0c12.4,0.1,19.5-5.5,29.8-14.8c16-14.4,26.6-31.6,28.3-60.8   c2.5-1.4,2.7-0.9,4.9-2.3H317l0,0l5.3,2.1c1.4,32.4,16.5,55.1,40.3,70.4c6.4,4.1,8,5.4,17,5.4C394.3,882,409.1,882.1,423.9,882.1z"
       id="path4995" /></g><g
     id="g5007"><path
       class="st26"
       d="M634.3,554.9c-3.4,3.5-4.2,11.6-3.3,14.8c2.3,8.2,5.1,5.8,37.4,5.8l105.4-0.7c-1-4.8,10.3-19.9-11.4-20.3   C733.2,554,652.3,552.2,634.3,554.9z"
       id="path4999" /><path
       class="st23"
       d="M627.6,536.2c-3.4,3.5-4.2,11.6-3.3,14.8c2.3,8.2,5.1,5.8,37.4,5.8l105.4-0.7c-1-4.8,10.3-19.9-11.3-20.3   C726.5,535.3,645.6,533.6,627.6,536.2z"
       id="path5001" /><path
       class="st27"
       d="M631.3,498.2c-3.4,3.5-4.2,11.6-3.3,14.8c2.3,8.2,5.1,5.8,37.4,5.8l105.4-0.7c-1-4.8,10.3-19.9-11.3-20.3   C730.2,497.3,649.3,495.5,631.3,498.2z"
       id="path5003" /><path
       class="st5"
       d="M631.3,538.2c-3.4-3.5-4.2-11.6-3.3-14.8c2.3-8.2,5.1-5.8,37.4-5.8l105.4,0.7c-1,4.8,10.3,19.9-11.3,20.3   C730.2,539.1,649.3,540.9,631.3,538.2z"
       id="path5005" /></g><g
     id="g5017"><path
       class="st2"
       d="M610.9,240.6l-104.3,0.1c-8.2-8.8-4.7-33.6-4.7-48.8c0-15-1.6-40.6,0.1-54.4c1.4-11.9,17.1-20.3,27.5-26.6   c24.1-14.5,17.4-7.7,44.8-11.1L574.2,89l19.8,0l0,11.5c28.7,1.1,22.6-3.5,22.6,71.6c0,12.6,0,25.3,0,37.9   C616.7,219.6,619.7,236.1,610.9,240.6L610.9,240.6z M538.1,145.8c0-10.5-0.8-13.9-10.1-8.7c-6.9,3.8-9.2,5.4-9.8,13.5   c-0.9,12-0.5,34.7,0.4,46.8C545,197.2,538,169.5,538.1,145.8z"
       id="path5009" /><path
       class="st28"
       d="M601.8,139.2v64.3c0,11.8,0.4,9.1-4.4,16.2l-42.9,0.2c-6.3-6.5-4.7-7.5-4.7-18.1c0-17.9-3.1-67.8,2.9-79.2   c7.8-2.6,23.2-1.7,33.2-1.7C601.6,120.9,601.8,124.2,601.8,139.2z"
       id="path5011" /><path
       class="st29"
       d="M593.2,163c-8.4,2.4-25.1,2.3-34.6,0.1c-2.4-6.3-2.1-26.7-0.3-33.4c8-1.5,27.5-1.8,35.2,0.3   C596.3,138.3,596.4,156,593.2,163z"
       id="path5013" /><path
       class="st30"
       d="M594.1,89.1l-19.8,0l-5.5-1.9c4.4-19.6-1.8-21.7,25.3-20.4c2.5,5,3.5,13.9,4.8,19.6L594.1,89.1z"
       id="path5015" /></g><polygon
     class="st31"
     points="631.5,144.1 631.5,161.8 689.2,163.5 690.5,202.3 711.2,203 712.6,163.7 1020.1,163.3 1021.6,203  1041.1,203.2 1043.6,163.2 1101.1,162.5 1100.9,144.1 "
     id="polygon5019" /><polygon
     class="st31"
     points="476.4,232.6 476.4,250.3 534.2,252.1 535.5,290.9 556.1,291.6 557.6,252.2 865,251.8 866.5,291.6  886.1,291.7 888.6,251.8 946,251.1 945.8,232.6 "
     id="polygon5021" /><g
     id="g5029"><polygon
       class="st14"
       points="130.7,449.2 245.7,449.5 245.9,434.1 245.8,418.2 245.7,377.5 245.8,352.9 245.7,302.2 131.1,302.2   "
       id="polygon5023" /><path
       class="st13"
       d="M178.8,350.9c-58.3,14.9-36.2,98.7,20.7,84.6c20-4.9,37.5-26.9,31-53.5C225.5,361.8,203,344.7,178.8,350.9z"
       id="path5025" /><path
       class="st17"
       d="M161.2,419.5c70.6,11.5,52.7-51.9,52.5-52.1c-0.1-0.1-26.5-8-43.1,7.7C159.4,385.5,160.8,403.2,161.2,419.5z"
       id="path5027" /></g><g
     id="g5039"><path
       class="st2"
       d="M1320.6,791.3l-126.6,0.1c-10-10.6-5.7-40.8-5.7-59.2c0-18.3-1.9-49.3,0.1-66c1.8-14.5,20.8-24.7,33.4-32.3   c29.3-17.6,21.1-9.4,54.3-13.5l-0.1-13.1l24.1,0l0,14c34.8,1.4,27.4-4.3,27.4,86.9c0,15.3,0,30.7,0,46   C1327.5,765.8,1331.2,785.8,1320.6,791.3L1320.6,791.3z M1232.1,676.2c0-12.7-1-16.9-12.3-10.6c-8.3,4.7-11.1,6.6-11.9,16.4   c-1.1,14.5-0.6,42.1,0.5,56.8C1240.5,738.6,1232.1,705,1232.1,676.2z"
       id="path5031" /><path
       class="st28"
       d="M1309.5,668.2l0,78c0,14.4,0.4,11.1-5.4,19.7l-52,0.3c-7.6-7.9-5.7-9.1-5.7-21.9c0-21.7-3.7-82.3,3.5-96.1   c9.5-3.2,28.2-2.1,40.3-2.1C1309.2,646,1309.5,650,1309.5,668.2z"
       id="path5033" /><path
       class="st29"
       d="M1299,697c-10.2,2.9-30.5,2.8-42.1,0.1c-2.9-7.7-2.6-32.4-0.4-40.6c9.7-1.9,33.4-2.2,42.7,0.3   C1302.8,667.1,1302.9,688.5,1299,697z"
       id="path5035" /><path
       class="st30"
       d="M1300.1,607.3l-24.1,0l-6.7-2.3c5.4-23.7-2.1-26.3,30.7-24.7c3,6,4.2,16.9,5.9,23.8L1300.1,607.3z"
       id="path5037" /></g><g
     id="g5045"><path
       class="st5"
       d="M579.9,522.8l-17.7-0.6l-0.5-2.1c-0.8-1.3-1.4-0.9-3.1-0.9l-15.6,0c-4.3,0-3.5,0.2-3.6,6.2   c-3.5,0.2-5,1.3-7,2.5c-0.2-0.1-2.6-3.8-6.2-0.1c-2.7,2.8-1.3,3.5,0.5,6.4c-4.3,3.4-31,33.7-31.1,39.4c-2.8,0.1-6.2,3-7.3,5.6   c-0.1,0.2-0.1,0.3-0.2,0.4c-0.1,0.2-0.1,0.3-0.2,0.5c-0.1,0.2-0.1,0.4-0.1,0.5c0,0.2-0.1,0.4-0.1,0.6l101.8,0.2   c11.2,0,34.5,0.7,41.7-0.5c2.2-5.7,0.6-7.2-4-7.4c4.1-3.8,2.8-6.1,1.2-11.2c-3.8-11.6-14-31.3-14.9-34.2l3.1-2.9   c0.3-0.3,0.5-0.4,0.7-0.7c0.1-0.1,0.2-0.2,0.2-0.3c0.1-0.1,0.2-0.2,0.2-0.3l4.6-4.6c3.6-3.5,4-4,0.9-7.1c-1.7-1.8-1.1-1.7-3.8-1.9   c-0.5,0.6-0.9,1.3-1.4,1.9l-0.7,0.7c-0.8,0.9-0.1,0.1-0.9,1l-3.4,3.4c-0.4,0.5-0.2,0.3-0.6,0.8l-0.5,0.5c-0.1,0.1-0.2,0.2-0.2,0.2   c-0.1,0.1-0.2,0.2-0.3,0.2c-9.5,7.8,0.6,5-18.1,4.3C589,523.1,584.7,522.8,579.9,522.8L579.9,522.8z M542,550.4   c-0.1-3.1,2-4.6,3.4-6.8c9.2-14.1,6.1-12,17.4-12h35.9c9.1,0,9.3-0.6,9.3,6.1c0,12.8,1.1,13-5.4,13c-3.1,0-6.2,0.1-9.2-0.1   c-1.6-2.7-0.1-2.9-3.5-5c-2.1-1.3-4.3-1.6-7.2-1.5c-6.9,0-9,1.9-10.7,6.6C564.6,550.7,548,551.5,542,550.4z"
       id="path5041" /><path
       class="st32"
       d="M495.8,572.7c-0.1,0.3-0.2,0.6-0.2,0.9c-2.8,0.1-6.2,3-7.3,5.6c-0.1,0.2-0.1,0.3-0.2,0.4   c-0.1,0.2-0.1,0.3-0.2,0.5c-0.1,0.2-0.1,0.4-0.1,0.5c0,0.2-0.1,0.4-0.1,0.6l101.8,0.2c11.2,0,34.5,0.7,41.7-0.5   c2.2-5.7,0.6-7.2-4-7.4c0.3-0.3,0.6-0.6,0.8-0.8H495.8z"
       id="path5043" /></g><g
     id="g5075"><path
       class="st8"
       d="M1034.8,392.9l-3,62.3c8.8-0.2,17.8,0,26.7-0.1c4.5,0,7.9,0,12.5,0c3.4,0,10.1-0.2,12.1,0.2   c-0.4-3.2,5.3-31.4,6.4-36.8l11.7-0.2l6.8,36.8c8.4-0.4,17,0.1,25.4,0c7.5-0.2,18.8,0.7,25.7-0.3l-4.2-83.7   c-8.4,0.6-25.1,0.1-35.7,0.2l-11.5,0c-0.8,3.5-0.2,23.5-0.2,28.8c0,6.6-5.8,17.4-12,17.9l-0.1-46.6c-8.5-1.2-20.9,0.7-29.6,0   c-6.3-0.6-23-0.6-29.3,0.1l0.1-14.1c-0.6,0.8-0.2-0.1-0.4,1c-0.1,0.4-0.1,0.8-0.1,1.2l-0.1,19.9L1034.8,392.9z"
       id="path5063" /><path
       class="st35"
       d="M1154.8,371.2l0-13.9l-54-0.1l-4.8,0l-59.5,0.1l-0.1,14.1c6.3-0.6,23-0.6,29.3-0.1c8.7,0.8,21.2-1.2,29.6,0   l0.1,46.6c6.1-0.5,11.9-11.3,12-17.9c0-5.3-0.5-25.3,0.2-28.8l11.5,0C1129.7,371.3,1146.5,371.8,1154.8,371.2z"
       id="path5065" /><path
       class="st35"
       d="M1083.1,455.4c-2-0.4-8.6-0.2-12.1-0.2c-4.5,0-8,0-12.5,0c-8.9,0-17.9-0.1-26.7,0.1c-4.6-0.3-4,3.3-4,7.3   c0,4.6,0,6.5,4.8,6.5l46.3,0c4.6,0,6.4,0.2,6.5-4.7C1085.7,460.4,1086.4,456,1083.1,455.4z"
       id="path5067" /><path
       class="st35"
       d="M1159,454.9c-6.9,1-18.2,0.1-25.7,0.3c-8.4,0.2-16.9-0.4-25.4,0c-3.6,1.2-2.8,4.3-2.8,8.7   c0,5,1.7,5.2,6.3,5.1l46.4,0c5.1,0,5.1-1.5,5.1-6.5C1163,457.6,1163.8,455.7,1159,454.9z"
       id="path5069" /><path
       class="st36"
       d="M1096,357.2l4.8,0l0-12.5c-4.3-0.1-7,0.6-9.8-1.9c-5.2-4.7-1.8-13.6,5.8-12.9c4.9,0.5,5,4.6,7.1,5l3.8,0   c-1.9-10-14.9-13-21.1-5.3c-6.6,8.2-1.3,19,9.3,19.9L1096,357.2z"
       id="path5071" /><path
       class="st37"
       d="M1093.7,361.4c-5,2.4-1.4,9.9,3.6,7.2C1101.7,366.2,1098.3,359.2,1093.7,361.4z"
       id="path5073" /></g><path
     class="st8"
     d="M785.3,575.5c0.2,2.6,1.3,5.7,2.1,8.4c1.7,5.7,0.6,3.1,4.3,6.5c1.4,0.5,3.4,2.2,4.8,3.1c2.7,1.8,2.7,1.9,3,5.9  c-0.7,0.7-1.4,1.3-2,1.9c1.7,1.3,1.8,0.9,2.1,3.2c-3.1-0.2-1.2,0.4-2.9-1.6c0.1,2.6,1.4,2.5,3.9,2.2c0.3,4.2,1.6,8.5,2.2,12.7  l0.6,13.9c-0.6,1.9-36.2,6.8-37.9,6.7c1.2-8.2-0.2-5.3-1.1-12.2c-0.3-2.3-0.1-5.3-0.2-7.6c-0.1-4.4-0.6-2.7-2-6l-23,3.3l-12.6,2.2  l-24.8,3.5c-1.7,0.4-3.5,1.3-5.3,0.8c-1.6-0.4-1-1.3-4.2-1.2c0,0.9,0,0.4,0.1,1.1c0.1,0.6,0.1,0.4,0.4,1.9l-13.5,3.7  c-3.7,0.7-7.1,2.2-10.9,2.9c-4.2,0.7-8.5,0.9-12.6,1.6c-4.2,0.7-12.7,4.6-21.3,6.4l-3.3-48.5l-0.7-14.3l26.6-0.1  c6.5,0.6,27,0.8,33.1,0c5.4-0.7,8.8,0.9,14.8-0.6c3.4-0.8,11.5,0.1,15.6,0.3c10.8,0.5,22.1-1,32.1-0.2  C763.3,576.4,776.1,574.3,785.3,575.5z"
     id="path5077" /><g
     id="g5083"><path
       class="st38"
       d="M649.4,234.3l38.9,0.3c2.5-7.3,8.4-13.5,8.9-21.4c0.4-6.3-8.2-42.6-10.1-52c-3.4-16.4-1.9-20.6-9-21.7   l-17.6,0.1c-8,0.1-5.3,1.6-9.4,20.3l-10.4,50.4C640.2,221.1,646.5,225.7,649.4,234.3z"
       id="path5079" /><path
       class="st39"
       d="M660.5,139.6l17.6-0.1l0.3-14.1l12.5-1.8c6.5,12.2,3.1,15.4,9.1,19.4c2.6-4.6,0.2-10-0.2-13   c-1.5-10.4,0.4-6.1,6.1-10.1l-0.1-11.7c-12.9-1.3-33.3-0.8-46.6-0.5c-16.2,0.3-20.5,16.9,0.9,19.9L660.5,139.6z"
       id="path5081" /></g><g
     id="g5089"><path
       class="st38"
       d="M1073.6,148.3l-38.9,0.3c-2.5-7.3-8.4-13.5-8.9-21.4c-0.4-6.3,8.2-42.6,10.1-52c3.4-16.4,1.9-20.6,9-21.7   l17.6,0.1c8,0.1,5.3,1.6,9.4,20.3l10.4,50.4C1082.8,135.1,1076.5,139.6,1073.6,148.3z"
       id="path5085" /><path
       class="st39"
       d="M1062.5,53.5l-17.6-0.1l-0.3-14.1l-12.5-1.8c-6.5,12.2-3.1,15.4-9.1,19.4c-2.6-4.6-0.2-10,0.2-13   c1.5-10.4-0.4-6.1-6.1-10.1l0.1-11.7c12.9-1.3,33.3-0.8,46.6-0.5c16.2,0.3,20.5,16.9-0.9,19.9L1062.5,53.5z"
       id="path5087" /></g><g
     id="g5097"><path
       class="st23"
       d="M976.3,718.1c-1.6,1.9-1,10.1-1,14.2c0,1.3-0.1,3.2,0.6,3.8c3.8,1.8,24.5,0.5,30.5,0.7c1,4.8,2,9.4,3,14.4   c1.1,5.3-1.2,10.8-5.3,11.9c-4.2,1.1-0.2,1.6-8.9,1.6c-8.3,0-26.4,0.6-32.2-0.4c-8.6-3.4-7.3-10.2-7.3-20c0-9.2,0-18.4-0.1-27.6   c-0.1-11.1,4.7-11.7,10.6-17.1c8.9-8,7.8-7.1,6.2-19.5l0.1-2.8c4,0,7.9,0,11.9,0c8.2,0,6.3-1.8,9.5-1.8l8.6,42.2   C997.3,717.9,979.3,717,976.3,718.1z"
       id="path5091" /><path
       class="st12"
       d="M993.9,675.4c-3.2-0.1-1.3,1.8-9.5,1.8c-4,0-7.9-0.1-11.9,0l-0.1,2.8c-0.5-2,0.5-2.6-1.5-2.7   c-2.7-0.2,0.6,2.4-6,9.5c-2.7,2.9-8,7.4-12.3,7.9c3.4-2.9,9.9-10.4,10.3-17.3l-19.7-1c-1.6-2.1-1.9-1.4-2.8-2.1l0-9.8   c0.9-4.2-0.7,2,2.8-3.3c6.5-0.3,49.9-0.8,52.8,0.3C998.4,668.2,993.9,674.8,993.9,675.4z"
       id="path5093" /><path
       class="st26"
       d="M1006.4,736.7c-6-0.1-26.7,1.2-30.5-0.7c-0.7-0.6-0.6-2.4-0.6-3.8c0-4-0.6-12.3,1-14.2l26.5-0.1L1006.4,736.7   z"
       id="path5095" /></g><g
     id="g5105"><path
       class="st9"
       d="M268.6,370.9c2.8,3.2,1.8,17.7,1.7,24.8c0,2.3,0.1,5.6-1,6.6c-6.6,3.2-42.9,0.9-53.3,1.1   c-1.7,8.4-3.5,16.5-5.2,25.1c-1.9,9.3,2,18.9,9.2,20.7c7.3,2,0.3,2.8,15.6,2.8c14.5-0.1,46.1,1.1,56.3-0.6   c15.1-6,12.8-17.9,12.8-34.9c0-16.1,0-32.2,0.2-48.3c0.2-19.5-8.3-20.5-18.6-29.8c-15.5-14-13.6-12.4-10.8-34.1l-0.1-4.9   c-6.9,0-13.9,0-20.8,0.1c-14.3,0.1-11-3.2-16.6-3.1l-15.1,73.8C231.8,370.5,263.3,369,268.6,370.9z"
       id="path5099" /><path
       class="st12"
       d="M237.9,296.3c5.6-0.1,2.3,3.2,16.6,3.1c6.9,0,13.9-0.1,20.8-0.1l0.1,4.9c0.9-3.4-0.9-4.6,2.7-4.8   c4.7-0.3-1.1,4.2,10.5,16.6c4.7,5,14,12.9,21.4,13.8c-6-5.1-17.4-18.2-18.1-30.2l34.5-1.7c2.8-3.6,3.4-2.4,5-3.7l0-17.1   c-1.6-7.4,1.2,3.5-5-5.7c-11.4-0.6-87.3-1.5-92.2,0.6C230,283.7,237.9,295.2,237.9,296.3z"
       id="path5101" /><path
       class="st11"
       d="M216,403.4c10.5-0.2,46.7,2,53.3-1.1c1.2-1,1-4.2,1-6.6c0-7.1,1.1-21.5-1.7-24.8l-46.3-0.2L216,403.4z"
       id="path5103" /></g><g
     id="g5113"><path
       class="st40"
       d="M985.5,107.2c-1.3,1.5-0.8,7.9-0.8,11.1c0,1-0.1,2.5,0.5,2.9c3,1.4,19.2,0.4,23.9,0.5   c0.8,3.8,1.6,7.4,2.3,11.3c0.8,4.2-0.9,8.5-4.1,9.3c-3.3,0.9-0.1,1.3-7,1.2c-6.5,0-20.7,0.5-25.3-0.3c-6.8-2.7-5.7-8-5.7-15.7   c0-7.2,0-14.4-0.1-21.7c-0.1-8.7,3.7-9.2,8.3-13.4c6.9-6.3,6.1-5.5,4.9-15.3l0-2.2c3.1,0,6.2,0,9.3,0c6.4,0,4.9-1.5,7.5-1.4   l6.8,33.1C1002,107.1,987.9,106.4,985.5,107.2z"
       id="path5107" /><path
       class="st12"
       d="M999.3,73.8c-2.5-0.1-1.1,1.4-7.5,1.4c-3.1,0-6.2,0-9.3,0l0,2.2c-0.4-1.5,0.4-2-1.2-2.1   c-2.1-0.1,0.5,1.9-4.7,7.4c-2.1,2.3-6.3,5.8-9.6,6.2c2.7-2.3,7.8-8.1,8.1-13.5l-15.5-0.8c-1.3-1.6-1.5-1.1-2.2-1.6l0-7.6   c0.7-3.3-0.5,1.6,2.2-2.6c5.1-0.3,39.1-0.7,41.4,0.3C1002.9,68.1,999.3,73.3,999.3,73.8z"
       id="path5109" /><path
       class="st11"
       d="M1009.2,121.8c-4.7-0.1-21,0.9-23.9-0.5c-0.5-0.4-0.5-1.9-0.5-2.9c0-3.2-0.5-9.6,0.8-11.1l20.8-0.1   L1009.2,121.8z"
       id="path5111" /></g><g
     id="g5121"><path
       class="st41"
       d="M903.3,82.7c-7-3.7-16.2-9.5-26-5.8c-6.9,2.6-12.7,11-10.6,20.8c2,9.4,8.6,11.8,16.7,15.5   c6.3,2.9,15.6,8.2,22.3,10.1l0.3,23.3c-4.8,1.7-18.1,0.8-24.4,0.7c-6.5,0-19.2,2.1-23.4-2c-0.5-15.3-0.1-31.2-0.1-46.5   c0-8.2-1.8-41.3,1.1-45.9l9.8-0.4l25.4-0.1c14.9,0.3,11.4-3.4,11.6,29.5C904.6,83,905.9,82.8,903.3,82.7z"
       id="path5115" /><path
       class="st6"
       d="M903.3,82.7l2.6,1.3c0.4,8.1,1,32.2-0.3,39.3c-6.7-1.9-16-7.2-22.3-10.1c-8-3.7-14.6-6.1-16.7-15.5   c-2.1-9.8,3.7-18.2,10.6-20.8C887.1,73.2,896.3,79,903.3,82.7z"
       id="path5117" /><path
       class="st7"
       d="M894.4,52.4L869,52.5l0.2-11.1l6.1-0.2l0.2-14.2c-3.5-1-5.9-0.1-9.1-0.6c-3.4-0.6-7.4-3.1-17.5-0.4   c-3,0.8-4.2,2.6-6.9,3.7l0.1-6.4c7.2-4.1,12.4-3.9,22.2-3.9l-0.1-6.4l30-0.4l0.1,13.6l-5.9,0.3l-0.2,14.8l6,0.2L894.4,52.4z"
       id="path5119" /></g><g
     id="g5127"><polygon
       class="st32"
       points="295.7,451.2 341.8,451.5 342.3,350 355.7,349.8 356,409.9 370.4,409.9 370.8,337.4 264,337.4  "
       id="polygon5123" /><path
       class="st10"
       d="M298.8,445.5l40.8,0.2l0.4-16.3c-2.5-0.5-5.9-0.5-6.9-0.8c-6.2-1.5-2.2,1.7-5-2.8c2.3-6.6,3.3-2.3,11.8-4.7   l-0.2-6.1c-14.9-2.5-12.4,3.3-15.9-3.9c2.9-5,0.4-2.1,7.8-2.8c1.9-0.2,2.2,0.3,4.3-0.4c4.4-1.3,1.9,0.9,3.8-2.7   c1.6-9.2-4.4-3.6-17.3-5.5l-0.2-5.1c3.7-0.5,4.7-0.2,7.9-0.3c13-0.5,0.5,1.5,8.3-1.7c0.3-0.1,0.8-0.4,1.2-0.7l-57-2   C284.2,398.5,295.6,439.9,298.8,445.5z"
       id="path5125" /></g><g
     id="g5720"><path
       id="path4919"
       d="M86.6,470.1l0,361.5l22.9,0.4c0.2,22.2,3.5,18.9,24.7,18.9c20.3,0,24.2,2.3,23.9-19.1  c46.1-1.2,105.9-0.1,153.3-0.1c0.1,22.2,2.9,19.2,35.6,19.2c16.4,0,11.1-6.6,13.9-19.2l22.4-0.3l0.1-361.4c1.9-5.1,7.4-3.7,5.1-14.1  c-1.4-6.3-3-4.7-17-4.6l-281,0c-7.3,0-9-0.6-9.2,7.1C80.9,470.4,83.9,463.8,86.6,470.1z"
       class="st7" /><path
       id="path4921"
       d="M86.6,470.1l0,71.8h296.8l0-71.8c1.9-5.1,7.4-3.7,5.1-14.1c-1.4-6.3-3-4.7-17-4.6l-281,0c-7.3,0-9-0.6-9.2,7.1  C80.9,470.4,83.9,463.8,86.6,470.1z"
       class="st8" /><g
       id="g5051"><path
         id="path5047"
         d="M235.2,722.6c39.4,0,71.5-32.1,71.5-71.5c0-39.4-32.1-71.5-71.5-71.5c-39.4,0-71.5,32.1-71.5,71.5   C163.7,690.5,195.8,722.6,235.2,722.6z"
         class="st8" /><path
         id="path5049"
         d="M235.2,573.1c21.5,0,41.1,8.7,55.2,22.9c14.1,14.1,22.9,33.6,22.9,55.2c0,21.5-8.7,41.1-22.9,55.2   c-14.1,14.1-33.6,22.9-55.2,22.9c-21.5,0-41.1-8.7-55.2-22.9c-14.1-14.1-22.9-33.6-22.9-55.2c0-21.5,8.7-41.1,22.9-55.2   C194.1,581.8,213.6,573.1,235.2,573.1L235.2,573.1z M281.1,605.1c-11.8-11.8-28-19-46-19c-17.9,0-34.2,7.3-46,19   c-11.8,11.8-19,28-19,46c0,17.9,7.3,34.2,19,46c11.8,11.8,28,19,46,19c17.9,0,34.2-7.3,46-19c11.8-11.8,19-28,19-46   C300.2,633.1,292.9,616.9,281.1,605.1z"
         class="st5" /></g><path
       id="path5053"
       d="M282.4,672.3c-9.6-5-12.2,2.9-12.2-22c0-13.9-2.1-20.5,12.2-22.2c-5.4-21-52.5-48.7-85.6-11.2  c-11.8,13.3-15.6,34.2-9,51.3c5.6,14.5,18.6,27.2,35.3,31.6C248.1,706.2,274.8,692.2,282.4,672.3z"
       class="st33" /><polygon
       id="polygon5055"
       points="213,511.8 238.1,511.9 238.2,487.1 213.1,486.6 "
       class="st34" /><polygon
       id="polygon5057"
       points="321.7,511.6 346.6,512 347,486.7 321.8,486.8 "
       class="st34" /><polygon
       id="polygon5059"
       points="249.2,511.9 273.9,512 274.4,486.8 249.7,486.8 "
       class="st34" /><polygon
       id="polygon5061"
       points="285.5,511.5 310.2,512 310.7,486.8 285.6,486.9 "
       class="st34" /><g
       id="g5133"><path
         id="path5129"
         d="M128.8,477.8c-34.1,8.2-20.8,54.1,9.7,47.9c12.4-2.5,21.6-14.8,19-29.1C155.3,484.8,142.6,474.4,128.8,477.8z   "
         class="st42" /><path
         id="path5131"
         d="M128.1,489.6c-0.7,0.4-3.7,2.3-4,2.5c-0.9,0.8-0.3,0.1-1.2,1.4c-4,5.7-4.1,15.1,4.4,20   c2.9,1.6,7.4,1.9,10.9,0.6C155.2,508,144,481.8,128.1,489.6z"
         class="st10" /></g></g><g
     id="g5143"><path
       class="st43"
       d="M731,137.8c-0.9,4.2-2.4,5.7-2.6,10.3c-0.1,3.7-0.1,8.5,0.3,12.2l55,0.1c1.1-6.7,0.8-14.7-1.4-20.3   c-1.1-2.9-5.5-12-5.1-15.6c23.1-3.4,28.5,53.2,15,75.8c-1,1.6-1.8,3-3,4.3c-1.5,1.6-2.5,2.1-3.6,3.6c-4.9-2.1,1.8-1.3-4-2.8   c-8.7,0-48.1-1.4-53.3,0.8l0.2,4.9l0.2,26.4l54.9,0.3l0.4-19.2c2.7-1.2,4.4-2.2,6-3.7c2-1.9,2.4-3.3,4.4-5.1   c1.3-3.2,3.3-6.6,4.6-10c1.4-3.7,2.3-7.2,3.2-11.3c1.8-8.1,2.1-16.5,2-25.3c-0.3-10.4-2.2-16.3-3.8-25.7   c-5.1-10.9-9.5-27.8-27-21.5l-4.5-12.8l-25.5,0.1L731,137.8z"
       id="path5135" /><polygon
       class="st10"
       points="783.6,160.5 728.7,160.4 728.5,160.7 728.1,205.5 783.8,205.2  "
       id="polygon5137" /><path
       class="st11"
       d="M743.4,103.4l25.5-0.1l0.3-17.2c-4.4-1.8-22.2-2-26.2-0.3C742,89.3,742,99.7,743.4,103.4z"
       id="path5139" /><path
       class="st12"
       d="M769.7,170.7c-7.7,4.1-4.9,28.3,3.2,24.3C779.3,191.8,778.1,166.2,769.7,170.7z"
       id="path5141" /></g><g
     id="g5153"><path
       class="st23"
       d="M352.7,941.1c10.9-4.3,26-18.4,31.6-26.8c8.7-12.8,14-24.7,14.3-44.1c4.1-0.5,5-1.1,5.3-5.3   c-1.6-4.3-3.9-3.3-8.6-3.3c-102.7,0.2-116.3,0.5-178.1,0c-8.1,0.1-10.2-1.1-14.3,1.7c-1.6,9.3,4.2,4.4,5,8.2   c3.5,16.5,5.1,30.7,14.6,43.4c2.5,3.4,5.5,7,8.9,10.3c3.7,3.5,6.3,5.7,10.4,8.8c2.2,1.6,10.8,6.5,11.7,7.7l99.1,0V941.1z"
       id="path5145" /><path
       class="st10"
       d="M237.9,860.9l0.2-2.2l53.1-0.2l0.3,2.3l75.8,0.1c4.2-10.8,3-18.8-4.9-24.8c-8.9-6.8-16.1-4.2-24.5,0.4   c-7.2-13.1-27.5-17.2-40.1-6.6c-1.4,1.2-2.8,2.9-4,3.4c-1.3,0-11.8-9.1-27.2-2.3c-8.9,3.9-13,10.8-15.3,20c-4,0-6.9,1-10.2,2.9   c-3.6,2-4.2,3.9-6.7,6.7L237.9,860.9z"
       id="path5147" /><path
       class="st44"
       d="M217.2,861.6l20.6,0.2l0.1-0.9l-3.5-0.3c2.5-2.8,3.1-4.6,6.7-6.7c3.3-1.9,6.2-2.8,10.2-2.9   c2.3-9.2,6.5-16.1,15.3-20c15.4-6.8,26,2.2,27.2,2.3c1.2-0.5,2.7-2.2,4-3.4c12.6-10.6,32.9-6.5,40.1,6.6c8.3-4.6,15.5-7.3,24.5-0.4   c7.9,6,9.1,14,4.9,24.8l-75.8-0.1l0.1,1l103.8-0.2c-4.1-20.6-16.6-19.6-18.4-25.9c-3.1-10.7-11-19.8-23.4-22   c-4.8-0.9-8.6-1-13.5,0.1c-5.2,1.2-7.1,3.4-11.5,4.6c-3.3-8-16.4-14.4-27.4-13.7c-11.1,0.7-22.3,8.7-25.1,16.5   c-4.7-0.3-6.9-1.9-13-1c-11.8,1.8-18.7,11-20,23.5C227.5,843.7,222.5,849.9,217.2,861.6z"
       id="path5149" /><path
       class="st10"
       d="M225.8,811.2c-7.5,3.8-1.8,14.3,5.4,10.9C237.8,819,233.7,807.3,225.8,811.2z"
       id="path5151" /></g><path
     class="st23"
     d="M1034.6,338.4c12.5,1.4,5.7-2.6,13.6-6.6c12-6.1,23.2,9.2,14.6,18.8c-4.9,5.5-8.6,3.5-16.7,4.2l-0.5,19.4  l-97.7,64.1c-3.6,2.2-4.8,2.1-4.1,7c2.7,0.8,206.4,1.3,212.2,0c1.5-5.1-1.8-5.1-9.9-10.6l-39.4-25.7c-8.9-5.8-15.8-10.5-26.1-17.2  c-8.2-5.3-19.4-11.9-26.6-17.6l-0.1-11.7c5.9-1.4,12.6-1.8,17.2-10.5c4-7.5,2.2-16.5-2.2-22C1060.6,319.5,1038,321,1034.6,338.4  L1034.6,338.4z M962.9,438.2c2.4-3.1,37.7-25.3,43.4-29c9.9-6.5,35-23.6,43.4-28.2c7.7,3.9,15.7,10,22.2,14.3  c8.2,5.5,62.3,39.5,64.6,43L962.9,438.2z"
     id="path5155" /></svg>
